<svg width="14" height="14" viewBox="0 0 14 14" fill="none" xmlns="http://www.w3.org/2000/svg">
<path d="M7.13754 0.303345C3.45754 0.303345 0.477539 3.29001 0.477539 6.97001C0.477539 10.65 3.45754 13.6367 7.13754 13.6367C10.8242 13.6367 13.8109 10.65 13.8109 6.97001C13.8109 3.29001 10.8242 0.303345 7.13754 0.303345ZM11.7575 4.30334H9.79087C9.58222 3.47765 9.27326 2.68061 8.87087 1.93001C10.0869 2.34868 11.1117 3.19116 11.7575 4.30334ZM7.14421 1.66334C7.69754 2.46334 8.13087 3.35001 8.41754 4.30334H5.87087C6.15754 3.35001 6.59087 2.46334 7.14421 1.66334ZM1.98421 8.30334C1.87754 7.87668 1.81087 7.43001 1.81087 6.97001C1.81087 6.51001 1.87754 6.06334 1.98421 5.63668H4.23754C4.18421 6.07668 4.14421 6.51668 4.14421 6.97001C4.14421 7.42335 4.18421 7.86335 4.23754 8.30334H1.98421ZM2.53087 9.63668H4.49754C4.71087 10.47 5.01754 11.27 5.41754 12.01C4.20018 11.5936 3.17476 10.7506 2.53087 9.63668ZM4.49754 4.30334H2.53087C3.17476 3.18946 4.20018 2.34639 5.41754 1.93001C5.01516 2.68061 4.70619 3.47765 4.49754 4.30334ZM7.14421 12.2767C6.59087 11.4767 6.15754 10.59 5.87087 9.63668H8.41754C8.13087 10.59 7.69754 11.4767 7.14421 12.2767ZM8.70421 8.30334H5.58421C5.52421 7.86335 5.47754 7.42335 5.47754 6.97001C5.47754 6.51668 5.52421 6.07001 5.58421 5.63668H8.70421C8.76421 6.07001 8.81087 6.51668 8.81087 6.97001C8.81087 7.42335 8.76421 7.86335 8.70421 8.30334ZM8.87087 12.01C9.27087 11.27 9.57754 10.47 9.79087 9.63668H11.7575C11.1117 10.7489 10.0869 11.5913 8.87087 12.01ZM10.0509 8.30334C10.1042 7.86335 10.1442 7.42335 10.1442 6.97001C10.1442 6.51668 10.1042 6.07668 10.0509 5.63668H12.3042C12.4109 6.06334 12.4775 6.51001 12.4775 6.97001C12.4775 7.43001 12.4109 7.87668 12.3042 8.30334H10.0509Z" fill="white"/>
</svg>
