<svg width="16" height="17" viewBox="0 0 16 17" fill="none" xmlns="http://www.w3.org/2000/svg">
<g clip-path="url(#clip0_1_11208)">
<path d="M7.9935 1.87329C4.3135 1.87329 1.3335 4.85996 1.3335 8.53996C1.3335 12.22 4.3135 15.2066 7.9935 15.2066C11.6802 15.2066 14.6668 12.22 14.6668 8.53996C14.6668 4.85996 11.6802 1.87329 7.9935 1.87329ZM12.6135 5.87329H10.6468C10.4382 5.0476 10.1292 4.25056 9.72683 3.49996C10.9429 3.91863 11.9676 4.76111 12.6135 5.87329ZM8.00016 3.23329C8.5535 4.03329 8.98683 4.91996 9.2735 5.87329H6.72683C7.0135 4.91996 7.44683 4.03329 8.00016 3.23329ZM2.84016 9.87329C2.7335 9.44662 2.66683 8.99996 2.66683 8.53996C2.66683 8.07996 2.7335 7.63329 2.84016 7.20662H5.0935C5.04016 7.64662 5.00016 8.08662 5.00016 8.53996C5.00016 8.99329 5.04016 9.43329 5.0935 9.87329H2.84016ZM3.38683 11.2066H5.3535C5.56683 12.04 5.8735 12.84 6.2735 13.58C5.05614 13.1636 4.03072 12.3205 3.38683 11.2066ZM5.3535 5.87329H3.38683C4.03072 4.75941 5.05614 3.91634 6.2735 3.49996C5.87111 4.25056 5.56215 5.0476 5.3535 5.87329ZM8.00016 13.8466C7.44683 13.0466 7.0135 12.16 6.72683 11.2066H9.2735C8.98683 12.16 8.5535 13.0466 8.00016 13.8466ZM9.56016 9.87329H6.44016C6.38016 9.43329 6.3335 8.99329 6.3335 8.53996C6.3335 8.08662 6.38016 7.63996 6.44016 7.20662H9.56016C9.62016 7.63996 9.66683 8.08662 9.66683 8.53996C9.66683 8.99329 9.62016 9.43329 9.56016 9.87329ZM9.72683 13.58C10.1268 12.84 10.4335 12.04 10.6468 11.2066H12.6135C11.9676 12.3188 10.9429 13.1613 9.72683 13.58ZM10.9068 9.87329C10.9602 9.43329 11.0002 8.99329 11.0002 8.53996C11.0002 8.08662 10.9602 7.64662 10.9068 7.20662H13.1602C13.2668 7.63329 13.3335 8.07996 13.3335 8.53996C13.3335 8.99996 13.2668 9.44662 13.1602 9.87329H10.9068Z" fill="#2D2F31"/>
</g>
<defs>
<clipPath id="clip0_1_11208">
<rect width="16" height="16" fill="white" transform="translate(0 0.539978)"/>
</clipPath>
</defs>
</svg>
