<svg width="14" height="10" viewBox="0 0 14 10" fill="none" xmlns="http://www.w3.org/2000/svg">
<path d="M7.08007 2.66498C6.83166 2.66886 6.58509 2.70832 6.34788 2.78217C6.4576 2.97513 6.51603 3.193 6.51757 3.41498C6.51757 3.58734 6.48362 3.75801 6.41766 3.91725C6.3517 4.07649 6.25502 4.22118 6.13314 4.34306C6.01127 4.46493 5.86658 4.56161 5.70734 4.62757C5.5481 4.69353 5.37743 4.72748 5.20507 4.72748C4.98309 4.72594 4.76522 4.66752 4.57225 4.55779C4.42001 5.08579 4.43775 5.64831 4.62297 6.16566C4.80819 6.68301 5.15149 7.12898 5.60425 7.44038C6.057 7.75178 6.59626 7.91284 7.14564 7.90074C7.69501 7.88863 8.22665 7.70398 8.66525 7.37294C9.10386 7.0419 9.42718 6.58125 9.58944 6.05624C9.75169 5.53123 9.74464 4.96848 9.56929 4.4477C9.39394 3.92692 9.05918 3.47451 8.61243 3.15455C8.16567 2.8346 7.62957 2.66332 7.08007 2.66498ZM13.7485 4.94779C12.4775 2.46787 9.96124 0.789978 7.08007 0.789978C4.19889 0.789978 1.68194 2.46904 0.411628 4.94802C0.358013 5.05408 0.330078 5.17126 0.330078 5.2901C0.330078 5.40893 0.358013 5.52611 0.411628 5.63217C1.68264 8.11209 4.19889 9.78998 7.08007 9.78998C9.96124 9.78998 12.4782 8.11092 13.7485 5.63193C13.8021 5.52587 13.8301 5.4087 13.8301 5.28986C13.8301 5.17102 13.8021 5.05385 13.7485 4.94779ZM7.08007 8.66498C4.76796 8.66498 2.64827 7.37592 1.50358 5.28998C2.64827 3.20404 4.76772 1.91498 7.08007 1.91498C9.39241 1.91498 11.5119 3.20404 12.6565 5.28998C11.5121 7.37592 9.39241 8.66498 7.08007 8.66498Z" fill="#282A35"/>
</svg>
