<svg width="20" height="21" viewBox="0 0 20 21" fill="none" xmlns="http://www.w3.org/2000/svg">
<path d="M9 16.88H11V14.88H9V16.88ZM10 0.880005C4.48 0.880005 0 5.36 0 10.88C0 16.4 4.48 20.88 10 20.88C15.52 20.88 20 16.4 20 10.88C20 5.36 15.52 0.880005 10 0.880005ZM10 18.88C5.59 18.88 2 15.29 2 10.88C2 6.47001 5.59 2.88 10 2.88C14.41 2.88 18 6.47001 18 10.88C18 15.29 14.41 18.88 10 18.88ZM10 4.88C7.79 4.88 6 6.67 6 8.88H8C8 7.78 8.9 6.88 10 6.88C11.1 6.88 12 7.78 12 8.88C12 10.88 9 10.63 9 13.88H11C11 11.63 14 11.38 14 8.88C14 6.67 12.21 4.88 10 4.88Z" fill="white"/>
</svg>
