<svg width="36" height="36" viewBox="0 0 36 36" fill="none" xmlns="http://www.w3.org/2000/svg">
<path d="M35.9664 19.1249H18.4659L6.09094 31.4999C8.61714 33.7286 11.7181 35.2037 15.0411 35.7573C18.3641 36.311 21.7758 35.921 24.8881 34.6317C28.0004 33.3424 30.6885 31.2056 32.6465 28.4643C34.6046 25.723 35.7563 22.4872 35.9664 19.1249ZM4.50019 29.9069C2.27149 27.3807 0.796434 24.2798 0.242796 20.9568C-0.310843 17.6338 0.0791572 14.2221 1.36844 11.1098C2.65772 7.99749 4.79453 5.30943 7.53585 3.35137C10.2772 1.39331 13.513 0.243841 16.8752 0.0336914V17.5342L4.50019 29.9092V29.9069ZM19.1252 0.0336914V16.8749H35.9664C35.6922 12.4982 33.8298 8.37208 30.7289 5.27119C27.6281 2.17031 23.5019 0.307926 19.1252 0.0336914Z" fill="#A435F0"/>
</svg>
