<svg width="26" height="20" viewBox="0 0 26 20" fill="none" xmlns="http://www.w3.org/2000/svg">
<path d="M20.0843 3.08892C20.0843 3.07633 20.0812 3.06688 20.0749 3.06058C20.0686 3.05428 20.0654 3.05113 20.0654 3.05113C19.4104 2.74881 18.7081 2.47797 17.9586 2.23863C17.2091 1.99929 16.4375 1.81033 15.6439 1.67177L15.5305 1.65287C15.5305 1.65287 15.5242 1.65287 15.5116 1.65287C15.4991 1.65287 15.4896 1.65602 15.4833 1.66232C15.477 1.66862 15.4676 1.67806 15.455 1.69066C15.3668 1.84183 15.2786 2.00874 15.1904 2.19139C15.1022 2.37405 15.0141 2.56615 14.9259 2.7677L14.907 2.84328C14.5165 2.7803 14.1071 2.73306 13.6788 2.70157C13.2505 2.67007 12.8096 2.65433 12.3561 2.65433C11.9152 2.65433 11.4743 2.67007 11.0334 2.70157C10.5925 2.73306 10.1579 2.7866 9.72965 2.86218L9.82413 2.84328C9.72336 2.61654 9.62258 2.40239 9.5218 2.20084C9.42103 1.99929 9.32025 1.81033 9.21948 1.63398L9.23837 1.69066C9.23837 1.67806 9.23208 1.66862 9.21948 1.66232C9.20688 1.65602 9.19428 1.65287 9.18169 1.65287C8.3251 1.80404 7.51574 1.99929 6.75363 2.23863C5.99151 2.47797 5.25144 2.7677 4.53342 3.10782L4.64679 3.05113C4.64679 3.05113 4.64364 3.05428 4.63734 3.06058C4.63104 3.06688 4.62789 3.07633 4.62789 3.08892C3.89727 4.15966 3.29892 5.2241 2.83283 6.28225C2.36674 7.35299 2.00773 8.41428 1.75579 9.46612C1.50385 10.518 1.34639 11.5667 1.28341 12.6122C1.22042 13.6452 1.23932 14.6844 1.34009 15.7299C1.34009 15.7425 1.34324 15.752 1.34954 15.7583C1.35584 15.7646 1.35899 15.7677 1.35899 15.7677C1.76209 16.0701 2.17779 16.3535 2.60609 16.618C3.03438 16.8826 3.47527 17.1314 3.92876 17.3644C4.38225 17.5974 4.84834 17.8147 5.32702 18.0163C5.80571 18.2178 6.29069 18.3942 6.78197 18.5454L6.91424 18.5832C6.91424 18.5832 6.91739 18.5832 6.92369 18.5832C6.92998 18.5832 6.93313 18.5832 6.93313 18.5832C6.94573 18.5832 6.95833 18.58 6.97092 18.5737C6.98352 18.5674 6.98982 18.558 6.98982 18.5454C7.19137 18.2808 7.38347 18.0005 7.56613 17.7045C7.74879 17.4085 7.92199 17.103 8.08575 16.7881L8.12354 16.7125C8.12354 16.6999 8.12669 16.6936 8.13299 16.6936C8.13929 16.6936 8.14244 16.6873 8.14244 16.6747C8.14244 16.6621 8.13614 16.6495 8.12354 16.6369C8.11095 16.6243 8.09835 16.618 8.08575 16.618C7.74564 16.4795 7.43071 16.3409 7.14098 16.2023C6.85125 16.0638 6.56782 15.9126 6.29069 15.7488L6.34738 15.7866C6.34738 15.774 6.34423 15.7646 6.33793 15.7583C6.33163 15.752 6.32848 15.7425 6.32848 15.7299C6.32848 15.7174 6.32848 15.7048 6.32848 15.6922C6.32848 15.6796 6.33478 15.6733 6.34738 15.6733C6.41036 15.6229 6.4702 15.5756 6.52688 15.5315C6.58357 15.4875 6.63711 15.4402 6.68749 15.3898C6.70009 15.3898 6.70954 15.3898 6.71584 15.3898C6.72214 15.3898 6.73158 15.3898 6.74418 15.3898C6.74418 15.3898 6.74733 15.3898 6.75363 15.3898C6.75993 15.3898 6.76308 15.3898 6.76308 15.3898C7.67005 15.8055 8.59593 16.1142 9.5407 16.3157C10.4855 16.5299 11.4271 16.6369 12.3656 16.6369C13.304 16.6369 14.2457 16.5299 15.1904 16.3157C16.1226 16.1142 17.0359 15.8055 17.9303 15.3898C17.9303 15.3898 17.9334 15.3898 17.9397 15.3898C17.946 15.3898 17.9555 15.3898 17.9681 15.3898C17.9681 15.3898 17.9712 15.3898 17.9775 15.3898C17.9838 15.3898 17.9932 15.3898 18.0058 15.3898C18.0562 15.4402 18.1129 15.4875 18.1759 15.5315C18.2389 15.5756 18.2956 15.6229 18.346 15.6733C18.3586 15.6733 18.368 15.6796 18.3743 15.6922C18.3806 15.7048 18.3838 15.7174 18.3838 15.7299C18.3838 15.7425 18.3806 15.752 18.3743 15.7583C18.368 15.7646 18.3586 15.774 18.346 15.7866C18.094 15.9378 17.8295 16.0795 17.5524 16.2118C17.2752 16.344 16.9855 16.4669 16.6832 16.5802L16.6076 16.618C16.595 16.618 16.5855 16.6243 16.5792 16.6369C16.5729 16.6495 16.5698 16.6621 16.5698 16.6747C16.5698 16.6873 16.5698 16.6936 16.5698 16.6936C16.5698 16.6936 16.5698 16.6999 16.5698 16.7125C16.7587 17.0652 16.9477 17.3959 17.1367 17.7045C17.3256 18.0131 17.5272 18.3123 17.7413 18.6021L17.7035 18.5454C17.7161 18.558 17.7256 18.5674 17.7319 18.5737C17.7382 18.58 17.7476 18.5832 17.7602 18.5832C17.7602 18.5832 17.7634 18.5832 17.7696 18.5832C17.7759 18.5832 17.7791 18.5832 17.7791 18.5832C18.3082 18.4194 18.8246 18.2367 19.3285 18.0352C19.8198 17.8336 20.2985 17.6132 20.7646 17.3738C21.2307 17.1345 21.6841 16.8763 22.125 16.5991C22.5533 16.3346 22.9753 16.0512 23.391 15.7488L23.3343 15.7677C23.3469 15.7677 23.3564 15.7646 23.3627 15.7583C23.369 15.752 23.3721 15.7425 23.3721 15.7299C23.4855 14.5332 23.4981 13.3743 23.4099 12.2532C23.3092 11.1321 23.1202 10.0456 22.8431 8.99374C22.5659 7.94189 22.1943 6.92469 21.7282 5.94213C21.2622 4.95957 20.7142 4.0085 20.0843 3.08892ZM8.67151 13.198C8.12984 13.198 7.66061 12.9807 7.2638 12.5461C6.867 12.1115 6.6686 11.5856 6.6686 10.9683C6.6686 10.3511 6.86385 9.82199 7.25436 9.38109C7.64486 8.9402 8.11725 8.71975 8.67151 8.71975C9.22578 8.71975 9.69816 8.9402 10.0887 9.38109C10.4792 9.82199 10.6744 10.3511 10.6744 10.9683C10.6744 11.5856 10.4792 12.1115 10.0887 12.5461C9.69816 12.9807 9.22578 13.198 8.67151 13.198ZM16.0596 13.198C15.5054 13.198 15.033 12.9807 14.6425 12.5461C14.252 12.1115 14.0567 11.5856 14.0567 10.9683C14.0567 10.3511 14.252 9.82199 14.6425 9.38109C15.033 8.9402 15.5054 8.71975 16.0596 8.71975C16.6139 8.71975 17.0863 8.9402 17.4768 9.38109C17.8673 9.82199 18.0562 10.3511 18.0436 10.9683C18.0436 11.5856 17.8515 12.1115 17.4673 12.5461C17.0831 12.9807 16.6139 13.198 16.0596 13.198Z" fill="#DDDDDD"/>
</svg>
