<svg width="37" height="37" viewBox="0 0 37 37" fill="none" xmlns="http://www.w3.org/2000/svg">
<g clip-path="url(#clip0_67_55)">
<path d="M24.8105 14.161C24.8105 15.9512 24.0994 17.6681 22.8335 18.934C21.5676 20.1999 19.8508 20.911 18.0605 20.911C16.2703 20.911 14.5534 20.1999 13.2876 18.934C12.0217 17.6681 11.3105 15.9512 11.3105 14.161C11.3105 12.3708 12.0217 10.6539 13.2876 9.38804C14.5534 8.12217 16.2703 7.41101 18.0605 7.41101C19.8508 7.41101 21.5676 8.12217 22.8335 9.38804C24.0994 10.6539 24.8105 12.3708 24.8105 14.161Z" fill="black"/>
<path fill-rule="evenodd" clip-rule="evenodd" d="M0.0605469 18.661C0.0605469 13.8871 1.95697 9.30874 5.33263 5.93309C8.70828 2.55743 13.2866 0.661011 18.0605 0.661011C22.8344 0.661011 27.4128 2.55743 30.7885 5.93309C34.1641 9.30874 36.0605 13.8871 36.0605 18.661C36.0605 23.4349 34.1641 28.0133 30.7885 31.3889C27.4128 34.7646 22.8344 36.661 18.0605 36.661C13.2866 36.661 8.70828 34.7646 5.33263 31.3889C1.95697 28.0133 0.0605469 23.4349 0.0605469 18.661ZM18.0605 2.91101C15.0945 2.91117 12.1889 3.74883 9.67795 5.32757C7.16703 6.90632 5.15293 9.16198 3.86747 11.8349C2.582 14.5079 2.07742 17.4895 2.41179 20.4366C2.74617 23.3837 3.90592 26.1765 5.75755 28.4935C7.35505 25.9195 10.8718 23.161 18.0605 23.161C25.2493 23.161 28.7638 25.9173 30.3635 28.4935C32.2152 26.1765 33.3749 23.3837 33.7093 20.4366C34.0437 17.4895 33.5391 14.5079 32.2536 11.8349C30.9682 9.16198 28.9541 6.90632 26.4431 5.32757C23.9322 3.74883 21.0265 2.91117 18.0605 2.91101Z" fill="black"/>
</g>
<defs>
<clipPath id="clip0_67_55">
<rect width="36" height="36" fill="white" transform="translate(0.0605469 0.661011)"/>
</clipPath>
</defs>
</svg>
