<svg width="16" height="11" viewBox="0 0 16 11" fill="none" xmlns="http://www.w3.org/2000/svg">
<path d="M10.667 4.27242C11.7737 4.27242 12.6603 3.37926 12.6603 2.27281C12.6603 1.16635 11.7737 0.273193 10.667 0.273193C9.56033 0.273193 8.66699 1.16635 8.66699 2.27281C8.66699 3.37926 9.56033 4.27242 10.667 4.27242ZM5.33366 4.27242C6.44033 4.27242 7.32699 3.37926 7.32699 2.27281C7.32699 1.16635 6.44033 0.273193 5.33366 0.273193C4.22699 0.273193 3.33366 1.16635 3.33366 2.27281C3.33366 3.37926 4.22699 4.27242 5.33366 4.27242ZM5.33366 5.60549C3.78033 5.60549 0.666992 6.38534 0.666992 7.93837V10.9378H10.0003V7.93837C10.0003 6.38534 6.88699 5.60549 5.33366 5.60549ZM10.667 5.60549C10.4737 5.60549 10.2537 5.61882 10.0203 5.63882C10.7937 6.19871 11.3337 6.9519 11.3337 7.93837V10.9378H15.3337V7.93837C15.3337 6.38534 12.2203 5.60549 10.667 5.60549Z" fill="#2D2F31"/>
</svg>
