<svg width="15" height="13" viewBox="0 0 15 13" fill="none" xmlns="http://www.w3.org/2000/svg">
<path d="M13.495 0.523132H1.49495C0.754954 0.523132 0.161621 1.11635 0.161621 1.85621V9.85466C0.161621 10.2082 0.302097 10.5473 0.552145 10.7973C0.802194 11.0473 1.14133 11.1877 1.49495 11.1877H4.82829V12.5208H10.1616V11.1877H13.495C14.2283 11.1877 14.8216 10.5878 14.8216 9.85466L14.8283 1.85621C14.8283 1.50265 14.6878 1.16358 14.4378 0.913581C14.1877 0.663581 13.8486 0.523132 13.495 0.523132ZM13.495 9.85466H1.49495V1.85621H13.495V9.85466ZM10.1616 5.85543L5.49495 8.52158V3.18928L10.1616 5.85543Z" fill="#2D2F31"/>
</svg>
