<svg width="36" height="36" viewBox="0 0 36 36" fill="none" xmlns="http://www.w3.org/2000/svg">
<path fill-rule="evenodd" clip-rule="evenodd" d="M0 18C0 13.2261 1.89642 8.64773 5.27208 5.27208C8.64773 1.89642 13.2261 0 18 0C22.7739 0 27.3523 1.89642 30.7279 5.27208C34.1036 8.64773 36 13.2261 36 18C36 22.7739 34.1036 27.3523 30.7279 30.7279C27.3523 34.1036 22.7739 36 18 36C13.2261 36 8.64773 34.1036 5.27208 30.7279C1.89642 27.3523 0 22.7739 0 18ZM18 2.25C15.034 2.25016 12.1283 3.08782 9.61741 4.66656C7.10649 6.24531 5.09239 8.50097 3.80692 11.1739C2.52145 13.8469 2.01687 16.8285 2.35125 19.7756C2.68562 22.7227 3.84537 25.5155 5.697 27.8325C7.2945 25.2585 10.8112 22.5 18 22.5C25.1887 22.5 28.7033 25.2563 30.303 27.8325C32.1546 25.5155 33.3144 22.7227 33.6488 19.7756C33.9831 16.8285 33.4785 13.8469 32.1931 11.1739C30.9076 8.50097 28.8935 6.24531 26.3826 4.66656C23.8717 3.08782 20.966 2.25016 18 2.25Z" fill="black"/>
</svg>
