<svg width="22" height="23" viewBox="0 0 22 23" fill="none" xmlns="http://www.w3.org/2000/svg">
<path d="M21.6097 18.88L12.5297 9.79001C13.4597 7.45001 12.9997 4.69001 11.0897 2.79001C8.78972 0.490007 5.20972 0.280007 2.65972 2.14001L6.49972 5.99001L5.07972 7.38001L1.24972 3.57001C-0.610283 6.11001 -0.400283 9.70001 1.89972 11.99C3.75972 13.85 6.46972 14.34 8.78972 13.47L17.8997 22.58C18.2897 22.97 18.9197 22.97 19.3097 22.58L21.6097 20.28C21.9997 19.88 21.9997 19.27 21.6097 18.88ZM18.6097 20.47L9.14972 11.01C8.53972 11.46 7.85972 11.73 7.14972 11.83C5.78972 12.03 4.35972 11.62 3.31972 10.58C2.36972 9.64001 1.92972 8.38001 1.99972 7.14001L5.08972 10.23L9.32972 5.99001L6.23972 2.88001C7.49972 2.83001 8.72972 3.27001 9.67972 4.21001C10.1912 4.72061 10.5712 5.34765 10.7872 6.03736C11.0032 6.72707 11.0486 7.45887 10.9197 8.17001C10.7949 8.88664 10.4923 9.56053 10.0397 10.13L19.4997 19.58L18.6097 20.47Z" fill="white"/>
</svg>
