<svg width="37" height="37" viewBox="0 0 37 37" fill="none" xmlns="http://www.w3.org/2000/svg">
<g clip-path="url(#clip0_67_14)">
<path d="M36.027 19.786H18.5265L6.15149 32.161C8.67769 34.3898 11.7786 35.8648 15.1016 36.4184C18.4246 36.9721 21.8363 36.5821 24.9486 35.2928C28.0609 34.0035 30.749 31.8667 32.7071 29.1254C34.6651 26.3841 35.8168 23.1483 36.027 19.786ZM4.56074 30.568C2.33204 28.0418 0.856981 24.9409 0.303343 21.6179C-0.250296 18.2949 0.139704 14.8832 1.42899 11.7709C2.71827 8.65859 4.85508 5.97054 7.5964 4.01248C10.3377 2.05442 13.5735 0.904943 16.9357 0.694794V18.1953L4.56074 30.5703V30.568ZM19.1857 0.694794V17.536H36.027C35.7528 13.1593 33.8904 9.03318 30.7895 5.9323C27.6886 2.83141 23.5625 0.969028 19.1857 0.694794Z" fill="black"/>
</g>
<defs>
<clipPath id="clip0_67_14">
<rect width="36" height="36" fill="white" transform="translate(0.0605469 0.661041)"/>
</clipPath>
</defs>
</svg>
